<svg xmlns="http://www.w3.org/2000/svg" xmlns:xlink="http://www.w3.org/1999/xlink" width="18" height="18" version="1.1" viewBox="0 0 18 18"><title>48E170A0-A711-40B1-9C81-CC53B71C09B5</title><desc>Created with sketchtool.</desc><g id="Page-1" fill="none" fill-rule="evenodd" stroke="none" stroke-width="1"><g id="guideline" fill="#000" transform="translate(-1017.000000, -951.000000)"><g id="Material/Light/Checkbox-off" transform="translate(1014.000000, 948.000000)"><rect id="bounds" width="24" height="24" x="0" y="0" fill="none"/><path id="Shape" fill="#666" d="M19,5 L19,19 L5,19 L5,5 L19,5 L19,5 Z M19,3 L5,3 C3.9,3 3,3.9 3,5 L3,19 C3,20.1 3.9,21 5,21 L19,21 C20.1,21 21,20.1 21,19 L21,5 C21,3.9 20.1,3 19,3 L19,3 L19,3 Z" opacity=".54"/></g></g></g></svg>