<svg xmlns="http://www.w3.org/2000/svg" xmlns:xlink="http://www.w3.org/1999/xlink" width="18" height="18" version="1.1" viewBox="0 0 18 18"><title>AF7AB6A9-047A-4427-945D-39FD831EF800</title><desc>Created with sketchtool.</desc><g id="Page-1" fill="none" fill-rule="evenodd" stroke="none" stroke-width="1"><g id="guideline" fill="#000" transform="translate(-968.000000, -951.000000)"><g id="Material/Light/Checkbox-on" transform="translate(965.000000, 948.000000)"><rect id="bounds" width="24" height="24" x="0" y="0" fill="none"/><path id="Shape" fill="#00B7F0" d="M19,3 L5,3 C3.9,3 3,3.9 3,5 L3,19 C3,20.1 3.9,21 5,21 L19,21 C20.1,21 21,20.1 21,19 L21,5 C21,3.9 20.1,3 19,3 L19,3 Z M10,17 L5,12.1923077 L6.4,10.8461538 L10,14.3076923 L17.6,7 L19,8.34615385 L10,17 L10,17 Z"/></g></g></g></svg>